<svg xmlns="http://www.w3.org/2000/svg" viewBox="3 -7 35 34">
  <path d="M26.4 26.3c-.2.1-.3.1-.5.2-.7.1-1.1-.2-1.1-.9v-3.7c0-1.5 0-2.8-1.1-4 .7-.1 1.3-.2 1.7-.3 3.7-.9 5.6-3.2 5.9-7.1.1-1.9-.2-3.8-1.6-5.4-.1-.2-.1-.4-.1-.6.4-1.3.3-2.5-.2-3.8-.1-.4-.3-.5-.6-.5-1.1.1-2.1.5-3 1.1-.9.6-1.6.7-2.6.5-2.2-.5-4.5-.4-6.7.2-.3.1-.6 0-.8-.2-1.1-.6-2-1.2-3.3-1.5-1-.2-1-.1-1.3.8-.3 1.2-.4 2.2 0 3.4 0 .2 0 .4-.1.6-2.1 2.7-1.3 7.9.4 9.9 1.3 1.6 3 2.2 4.9 2.6.3.1.7.1 1 .2-.3.8-.6 1.5-.9 2.1-.1.1-.2.3-.4.3-1.8.7-3.5.2-4.6-1.5-.6-.9-1.3-1.6-2.4-1.8-.3.1-.6.2-.9.2.2.2.3.6.5.7 1 .6 1.6 1.5 1.9 2.4.6 1.6 1.8 2.2 3.4 2.3.8.1 1.6 0 2.4 0v3.1c0 .6-.6.8-1.4.6-1.8-.7-3.6-1.6-5.1-2.8C4.4 19 2.4 13.2 4.1 6.1s6.5-11 13.5-12.3C27.3-8.1 36.4-1 37.4 8.9c.9 7.6-3.7 14.8-11 17.4zm-9.1-8.5c.1 0 .1 0 0 0zm-4.4 3c.2.1.3.2.5.3.1 0 .2-.1.4-.3-.3-.1-.4-.2-.6-.2-.1 0-.2.1-.3.2zm1.4.3c0 .1.2.2.4.2.1 0 .2-.2.4-.2l-.5-.5c-.2.2-.3.3-.3.5zm1.7-.5c-.1 0-.3.2-.4.3l.3.3.4-.4c-.2 0-.3-.2-.3-.2zm-4.2-.5c.1.2.2.3.4.5.1-.2.2-.3.2-.4l-.4-.4c0 .1-.2.3-.2.3z"/>
</svg>
