<svg id="Слой_1" xmlns="http://www.w3.org/2000/svg" viewBox="0 2 30 17">
    <path d="M25.1 12.7c.9.9 1.9 1.8 2.7 2.8.4.5.8.9 1 1.4.4.8 0 1.5-.7 1.6H24c-1 .1-1.9-.4-2.6-1-.6-.6-1.1-1.2-1.6-1.8-.2-.3-.5-.5-.8-.7-.6-.4-1-.3-1.4.4-.3.6-.4 1.2-.5 1.9 0 .9-.4 1.2-1.3 1.2-2.1.1-4-.2-5.9-1.2-1.6-1-2.8-2.3-3.9-3.7-2.2-2.9-3.8-6-5.2-9.3 0-.8.3-1.2 1-1.2h4c.6 0 .9.3 1.1.8.9 1.8 1.7 3.5 2.8 5.1.3.4.6.8 1 1.1.5.3.8.2 1-.3.2-.4.2-.7.3-1 .2-1.2.2-2.4 0-3.8-.1-.8-.6-1.3-1.3-1.4-.5-.1-.5-.2-.3-.5.4-.4.7-.7 1.3-.7h4.6c.8.2.9.5 1 1.2v5.2c0 .3.2 1.1.7 1.3.4.1.7-.2.9-.5 1.1-1.2 1.9-2.5 2.6-4 .3-.7.6-1.3.8-2 .1-.5.5-.7 1-.7h5.1c.8.1.9.5.8 1.2-.4 1.1-1 2.2-1.8 3.1-.8 1-1.5 2.1-2.3 3.1-.8 1-.8 1.5 0 2.4z"/>
</svg>
